# xmcd
#
# Track frame offsets:
#  150
#  9795
#  20602
#  29632
#  39135
#  55282
#  64025
#  78275
#  89000
#  104535
#
# Disc length: 1498 seconds
#
# Revision: 0
# Processed by: cddbd v1.4PL0 Copyright (c) Steve Scherf et al.
# Submitted via: AltoMP3 Maker 3.0
#
DISCID=7505d80a
DTITLE=Marie King - Chante noel
DYEAR=1900
DGENRE=
TTITLE0=Voici le pere noel
TTITLE1=Car c'est le jour de noel
TTITLE2=Tintin le lutin
TTITLE3=Pere noel ressemble a papa
TTITLE4=C'est noel
TTITLE5=La saison des motoneiges
TTITLE6=Noel cheri, c'est toi
TTITLE7=Pere noel arrive ce soir
TTITLE8=Ce noel de tres longtemps
TTITLE9=Joyeux noel country
EXTD=
EXTT0=
EXTT1=
EXTT2=
EXTT3=
EXTT4=
EXTT5=
EXTT6=
EXTT7=
EXTT8=
EXTT9=
PLAYORDER=
